<svg xmlns:xlink="http://www.w3.org/1999/xlink" height="400" width="600" xmlns="http://www.w3.org/2000/svg" style="font-family:'lucida grande', 'lucida sans unicode', arial, helvetica, sans-serif;font-size:12px;" version="1.1"><desc>Created with Highcharts 4.0.4</desc><defs><clipPath id="highcharts-17"><rect height="400" width="600" y="0" x="0"></rect></clipPath></defs><rect class=" highcharts-background" fill="#FFFFFF" strokeWidth="0" height="400" width="600" y="0" x="0"></rect><g  class="highcharts-series-group"><g transform="translate(0,49) scale(1 1)"  visibility="visible" class="highcharts-series"><path visibility="visible" transform="translate(0,7)"  d="M 299.94354427706423 51.44439842579689 L 299.94354427706423 70.00595143194376 L 300 170.06155300614688 L 300 151.5 Z" fill="rgb(161,56,50)" fill-opacity="1"></path><path visibility="visible" transform="translate(0,7)"  d="M 299.97118024167713 51.44439253739564 L 299.97118024167713 70.00594554354251 L 300 170.06155300614688 L 300 151.5 Z" fill="rgb(161,56,50)" fill-opacity="1"></path><path visibility="visible" transform="translate(0,7)"  d="M 441.5 151.5 C 441.5 206.75918728280473 378.1482921010573 251.5556095378965 300 251.5556095378965 C 221.85170789894272 251.5556095378965 158.5 206.75918728280473 158.5 151.5 L 158.5 170.06155300614688 C 158.5 225.3207402889516 221.85170789894272 270.11716254404337 300 270.11716254404337 C 378.1482921010573 270.11716254404337 441.5 225.3207402889516 441.5 170.06155300614688 Z" fill="rgb(161,56,50)" fill-opacity="1"></path><path visibility="visible" transform="translate(0,7)"  d="M 300 151.5 C 300 151.5 300 151.5 300 151.5 C 300 151.5 300 151.5 300 151.5 C 300 151.5 300 151.5 300 151.5 C 300 151.5 300 151.5 300 151.5 L 300 170.06155300614688 C 300 170.06155300614688 300 170.06155300614688 300 170.06155300614688 C 300 170.06155300614688 300 170.06155300614688 300 170.06155300614688 C 300 170.06155300614688 300 170.06155300614688 300 170.06155300614688 C 300 170.06155300614688 300 170.06155300614688 300 170.06155300614688 Z" fill="rgb(161,56,50)" fill-opacity="1"></path><g stroke-linejoin="round" stroke-width="1" stroke="#BA514B" ><path visibility="visible" transform="translate(0,7)"  d="M 299.97118024167713 51.44439253739564 C 378.11947072183045 51.43313772168816 441.48408035207814 96.2204352168052 441.4999970650937 151.47962135345773 C 441.5159137781092 206.73880749011028 378.1771102384762 251.5443526468969 300.02881975832287 251.55560746260437 C 221.88052927816955 251.56686227831185 158.5159196479218 206.7795647831948 158.5000029349063 151.52037864654224 C 158.48408820091777 96.2680632388356 221.80497507352518 51.46644301572563 299.94354427706423 51.44439842579689 L 300 151.5 C 300 151.5 300 151.5 300 151.5 C 300 151.5 300 151.5 300 151.5 C 300 151.5 300 151.5 300 151.5 C 300 151.5 300 151.5 300 151.5 Z" fill="#BA514B"></path></g></g><g transform="translate(0,49) scale(1 1)"  visibility="visible" class="highcharts-markers"></g></g><text y="21" style="color:#333333;font-size:25px;font-weight:bold;font-family:th sarabunpsk;fill:#333333;width:556px;"  class="highcharts-title" text-anchor="middle" x="300"><tspan>ค่าใช้จ่ายงานระบบจำหน่าย,ขยายเขต ปี 2558</tspan></text><g transform="translate(90,372)"  class="highcharts-legend"><g ><g><g transform="translate(8,3)"  class="highcharts-legend-item"><text y="21"  text-anchor="start" style="color:#333333;font-size:18px;font-weight:bold;cursor:pointer;font-family:th sarabunpsk;fill:#333333;" x="21">ค่าดำเนินงาน</text><rect fill="#BA514B"  height="12" width="16" y="10" x="0"></rect></g></g></g></g><g transform="translate(0,-9999)" style="cursor:default;padding:0;white-space:nowrap;"  class="highcharts-tooltip"><path transform="translate(1, 1)" stroke-width="5" stroke-opacity="0.049999999999999996" stroke="black"  d="M 3 0 L 13 0 C 16 0 16 0 16 3 L 16 13 C 16 16 16 16 13 16 L 3 16 C 0 16 0 16 0 13 L 0 3 C 0 0 0 0 3 0" fill="none"></path><path transform="translate(1, 1)" stroke-width="3" stroke-opacity="0.09999999999999999" stroke="black"  d="M 3 0 L 13 0 C 16 0 16 0 16 3 L 16 13 C 16 16 16 16 13 16 L 3 16 C 0 16 0 16 0 13 L 0 3 C 0 0 0 0 3 0" fill="none"></path><path transform="translate(1, 1)" stroke-width="1" stroke-opacity="0.15" stroke="black"  d="M 3 0 L 13 0 C 16 0 16 0 16 3 L 16 13 C 16 16 16 16 13 16 L 3 16 C 0 16 0 16 0 13 L 0 3 C 0 0 0 0 3 0" fill="none"></path><path d="M 3 0 L 13 0 C 16 0 16 0 16 3 L 16 13 C 16 16 16 16 13 16 L 3 16 C 0 16 0 16 0 13 L 0 3 C 0 0 0 0 3 0" fill="rgb(249, 249, 249)" fill-opacity=" .85"></path><text y="21" style="font-size:12px;color:#333333;fill:#333333;"  x="8"></text></g></svg>