<svg xmlns:xlink="http://www.w3.org/1999/xlink" height="400" width="600" xmlns="http://www.w3.org/2000/svg" style="font-family:'lucida grande', 'lucida sans unicode', arial, helvetica, sans-serif;font-size:12px;" version="1.1"><desc>Created with Highcharts 4.0.4</desc><defs><clipPath id="highcharts-25"><rect height="400" width="600" y="0" x="0"></rect></clipPath></defs><rect class=" highcharts-background" fill="#FFFFFF" strokeWidth="0" height="400" width="600" y="0" x="0"></rect><g  class="highcharts-series-group"><g transform="translate(10,59) scale(1 1)"  visibility="visible" class="highcharts-series"><path visibility="visible" transform="translate(0,-10)"  d="M 0 0" fill="rgb(161,56,50)" fill-opacity="1"></path><path visibility="visible" transform="translate(0,-10)"  d="M 0 0" fill="rgb(161,56,50)" fill-opacity="1"></path><path visibility="visible" transform="translate(0,-10)"  d="M 0 0" fill="rgb(57,103,165)" fill-opacity="1"></path><path visibility="visible" transform="translate(0,-10)"  d="M 0 0" fill="rgb(57,103,165)" fill-opacity="1"></path><path visibility="visible" transform="translate(0,-10)"  d="M 0 0" fill="rgb(161,56,50)" fill-opacity="1"></path><path visibility="visible" transform="translate(0,-10)"  d="M 0 0" fill="rgb(161,56,50)" fill-opacity="1"></path><path visibility="visible" transform="translate(0,-10)"  d="M 0 0" fill="rgb(57,103,165)" fill-opacity="1"></path><path visibility="visible" transform="translate(0,-10)"  d="M 0 0" fill="rgb(57,103,165)" fill-opacity="1"></path><g stroke-linejoin="round" stroke-width="1" stroke="#BA514B" ><path visibility="visible" transform="translate(0,-10)"  d="M 0 0" fill="#BA514B"></path></g><g stroke-linejoin="round" stroke-width="1" stroke="#5280BE" ><path visibility="visible" transform="translate(0,-10)"  d="M 0 0" fill="#5280BE"></path></g></g><g transform="translate(10,59) scale(1 1)"  visibility="visible" class="highcharts-markers"></g></g><text y="31" style="color:#333333;font-size:25px;font-weight:bold;font-family:th sarabunpsk;fill:#333333;width:536px;"  class="highcharts-title" text-anchor="middle" x="300"><tspan>ค่าใช้จ่ายงานติดตั้งอุปกรณ์ภายในสถานีไฟฟ้า ปี 2558</tspan></text><g transform="translate(90,357)"  class="highcharts-legend"><g ><g><g transform="translate(8,3)"  class="highcharts-legend-item"><text y="21"  text-anchor="start" style="color:#333333;font-size:18px;font-weight:bold;cursor:pointer;font-family:th sarabunpsk;fill:#333333;" x="21">ค่าจ้างเหมา</text><rect fill="#BA514B"  height="12" width="16" y="10" x="0"></rect></g><g transform="translate(110,3)"  class="highcharts-legend-item"><text  text-anchor="start" style="color:#333333;font-size:18px;font-weight:bold;cursor:pointer;font-family:th sarabunpsk;fill:#333333;" y="21" x="21">ค่าดำเนินงาน</text><rect fill="#5280BE"  height="12" width="16" y="10" x="0"></rect></g></g></g></g><g transform="translate(0,-9999)" style="cursor:default;padding:0;white-space:nowrap;"  class="highcharts-tooltip"><path transform="translate(1, 1)" stroke-width="5" stroke-opacity="0.049999999999999996" stroke="black"  d="M 3 0 L 13 0 C 16 0 16 0 16 3 L 16 13 C 16 16 16 16 13 16 L 3 16 C 0 16 0 16 0 13 L 0 3 C 0 0 0 0 3 0" fill="none"></path><path transform="translate(1, 1)" stroke-width="3" stroke-opacity="0.09999999999999999" stroke="black"  d="M 3 0 L 13 0 C 16 0 16 0 16 3 L 16 13 C 16 16 16 16 13 16 L 3 16 C 0 16 0 16 0 13 L 0 3 C 0 0 0 0 3 0" fill="none"></path><path transform="translate(1, 1)" stroke-width="1" stroke-opacity="0.15" stroke="black"  d="M 3 0 L 13 0 C 16 0 16 0 16 3 L 16 13 C 16 16 16 16 13 16 L 3 16 C 0 16 0 16 0 13 L 0 3 C 0 0 0 0 3 0" fill="none"></path><path d="M 3 0 L 13 0 C 16 0 16 0 16 3 L 16 13 C 16 16 16 16 13 16 L 3 16 C 0 16 0 16 0 13 L 0 3 C 0 0 0 0 3 0" fill="rgb(249, 249, 249)" fill-opacity=" .85"></path><text y="21" style="font-size:12px;color:#333333;fill:#333333;"  x="8"></text></g></svg>