<svg xmlns:xlink="http://www.w3.org/1999/xlink" height="400" width="600" xmlns="http://www.w3.org/2000/svg" style="font-family:'lucida grande', 'lucida sans unicode', arial, helvetica, sans-serif;font-size:12px;" version="1.1"><desc>Created with Highcharts 4.0.4</desc><defs><clipPath id="highcharts-5"><rect height="400" width="600" y="0" x="0"></rect></clipPath></defs><rect class=" highcharts-background" fill="#FFFFFF" strokeWidth="0" height="400" width="600" y="0" x="0"></rect><g  class="highcharts-series-group"><g transform="translate(0,49) scale(1 1)"  visibility="visible" class="highcharts-series"><path visibility="visible" transform="translate(5,5)"  d="M 299.97372615672333 47.7832271188978 L 299.97372615672333 66.34478012504466 L 300 157.56155300614688 L 300 139 Z" fill="rgb(161,56,50)" fill-opacity="1"></path><path visibility="visible" transform="translate(-2,-7)"  d="M 299.9485315317405 47.78323248712225 L 299.9485315317405 66.34478549326911 L 300 157.56155300614688 L 300 139 Z" fill="rgb(104,76,137)" fill-opacity="1"></path><path visibility="visible" transform="translate(-2,-7)"  d="M 230.12820885319488 62.3223213642417 C 251.9361951036052 52.3861633601673 274.00546639048525 47.79055159007439 299.9485315317405 47.78323248712225 L 299.9485315317405 66.34478549326911 C 274.00546639048525 66.35210459622125 251.9361951036052 70.94771636631417 230.12820885319488 80.88387437038857 Z" fill="rgb(104,76,137)" fill-opacity="1"></path><path visibility="visible" transform="translate(-2,-7)"  d="M 300 139 C 300 139 300 139 300 139 L 300 157.56155300614688 C 300 157.56155300614688 300 157.56155300614688 300 157.56155300614688 Z" fill="rgb(104,76,137)" fill-opacity="1"></path><path visibility="visible" transform="translate(-6,-3)"  d="M 230.12712447055793 62.32281543624889 L 230.12712447055793 80.88436844239575 L 300 157.56155300614688 L 300 139 Z" fill="rgb(57,103,165)" fill-opacity="1"></path><path visibility="visible" transform="translate(-2,-7)"  d="M 230.12820885319488 62.3223213642417 L 230.12820885319488 80.88387437038857 L 300 157.56155300614688 L 300 139 Z" fill="rgb(104,76,137)" fill-opacity="1"></path><path visibility="visible" transform="translate(5,5)"  d="M 172.1842148487736 151.33136379674886 L 172.1842148487736 169.89291680289574 L 300 157.56155300614688 L 300 139 Z" fill="rgb(161,56,50)" fill-opacity="1"></path><path visibility="visible" transform="translate(-6,-3)"  d="M 172.18404046334518 151.33046000204806 C 171.3527101611724 147.0217286065258 171 143.34864591274277 171 139 L 171 157.56155300614688 C 171 161.91019891888965 171.3527101611724 165.5832816126727 172.18404046334518 169.89201300819494 Z" fill="rgb(57,103,165)" fill-opacity="1"></path><path visibility="visible" transform="translate(-6,-3)"  d="M 300 139 C 300 139 300 139 300 139 L 300 157.56155300614688 C 300 157.56155300614688 300 157.56155300614688 300 157.56155300614688 Z" fill="rgb(57,103,165)" fill-opacity="1"></path><path visibility="visible" transform="translate(-6,-3)"  d="M 172.18404046334518 151.33046000204806 L 172.18404046334518 169.89201300819494 L 300 157.56155300614688 L 300 139 Z" fill="rgb(57,103,165)" fill-opacity="1"></path><path visibility="visible" transform="translate(5,5)"  d="M 429 139 C 429 189.37763363591387 371.2447327281724 230.21677477306463 300 230.21677477306463 C 234.9056348576421 230.21677477306463 180.98415652272382 196.93748948081512 172.1842148487736 151.33136379674886 L 172.1842148487736 169.89291680289574 C 181.8156090748788 219.80808577371096 246.84847299724726 254.75138559882186 317.4391819239188 247.9409614292619 C 381.9359833936172 241.7184629975656 429 203.59022001534137 429 157.56155300614688 Z" fill="rgb(161,56,50)" fill-opacity="1"></path><path visibility="visible" transform="translate(5,5)"  d="M 300 139 C 300 139 300 139 300 139 C 300 139 300 139 300 139 C 300 139 300 139 300 139 L 300 157.56155300614688 C 300 157.56155300614688 300 157.56155300614688 300 157.56155300614688 C 300 157.56155300614688 300 157.56155300614688 300 157.56155300614688 C 300 157.56155300614688 300 157.56155300614688 300 157.56155300614688 Z" fill="rgb(161,56,50)" fill-opacity="1"></path><g stroke-linejoin="round" stroke-width="1" stroke="#BA514B" ><path visibility="visible" transform="translate(5,5)"  d="M 299.97372615672333 47.7832271188978 C 371.2184574071811 47.77296654486059 428.9854866813999 88.60378899623937 428.99999732436106 138.98142158725122 C 429.01450796732223 189.35905417826308 371.27100509373446 230.206512307065 300.02627384327667 230.2167728811022 C 234.9226722889751 230.22614901758433 180.9854053523131 196.94396160089468 172.1842148487736 151.33136379674886 L 300 139 C 300 139 300 139 300 139 C 300 139 300 139 300 139 C 300 139 300 139 300 139 Z" fill="#BA514B"></path></g><g stroke-linejoin="round" stroke-width="1" stroke="#5280BE" ><path visibility="visible" transform="translate(-6,-3)"  d="M 172.18404046334518 151.33046000204806 C 165.2314495640409 115.29562930989272 186.89231445587373 82.02189878080901 230.12712447055793 62.32281543624889 L 300 139 C 300 139 300 139 300 139 Z" fill="#5280BE"></path></g><g stroke-linejoin="round" stroke-width="1" stroke="#8165A2" ><path visibility="visible" transform="translate(-2,-7)"  d="M 230.12820885319488 62.3223213642417 C 251.9361951036052 52.3861633601673 274.00546639048525 47.79055159007439 299.9485315317405 47.78323248712225 L 300 139 C 300 139 300 139 300 139 Z" fill="#8165A2"></path></g></g><g transform="translate(0,49) scale(1 1)"  visibility="visible" class="highcharts-markers"></g></g><text y="21" style="color:#333333;font-size:25px;font-weight:bold;font-family:th sarabunpsk;fill:#333333;width:556px;"  class="highcharts-title" text-anchor="middle" x="300"><tspan>รายได้งานบริการวิศวกรรมของ กบว. ปี 2558</tspan></text><g transform="translate(90,347)"  class="highcharts-legend"><g ><g><g transform="translate(8,3)"  class="highcharts-legend-item"><text y="21"  text-anchor="start" style="color:#333333;font-size:18px;font-weight:bold;cursor:pointer;font-family:th sarabunpsk;fill:#333333;" x="21">งานก่อสร้างสายส่งและระบบจำหน่าย</text><rect fill="#BA514B"  height="12" width="16" y="10" x="0"></rect></g><g transform="translate(234,3)"  class="highcharts-legend-item"><text  text-anchor="start" style="color:#333333;font-size:18px;font-weight:bold;cursor:pointer;font-family:th sarabunpsk;fill:#333333;" y="21" x="21"><tspan> งานบำรุงรักษาไฟฟ้า</tspan></text><rect fill="#5280BE"  height="12" width="16" y="10" x="0"></rect></g><g transform="translate(8,28)"  class="highcharts-legend-item"><text  text-anchor="start" style="color:#333333;font-size:18px;font-weight:bold;cursor:pointer;font-family:th sarabunpsk;fill:#333333;" y="21" x="21">งานก่อสร้างติดตั้งเส้นใยแก้วนำแสง</text><rect fill="#8165A2"  height="12" width="16" y="10" x="0"></rect></g></g></g></g><g transform="translate(0,-9999)" style="cursor:default;padding:0;white-space:nowrap;"  class="highcharts-tooltip"><path transform="translate(1, 1)" stroke-width="5" stroke-opacity="0.049999999999999996" stroke="black"  d="M 3 0 L 13 0 C 16 0 16 0 16 3 L 16 13 C 16 16 16 16 13 16 L 3 16 C 0 16 0 16 0 13 L 0 3 C 0 0 0 0 3 0" fill="none"></path><path transform="translate(1, 1)" stroke-width="3" stroke-opacity="0.09999999999999999" stroke="black"  d="M 3 0 L 13 0 C 16 0 16 0 16 3 L 16 13 C 16 16 16 16 13 16 L 3 16 C 0 16 0 16 0 13 L 0 3 C 0 0 0 0 3 0" fill="none"></path><path transform="translate(1, 1)" stroke-width="1" stroke-opacity="0.15" stroke="black"  d="M 3 0 L 13 0 C 16 0 16 0 16 3 L 16 13 C 16 16 16 16 13 16 L 3 16 C 0 16 0 16 0 13 L 0 3 C 0 0 0 0 3 0" fill="none"></path><path d="M 3 0 L 13 0 C 16 0 16 0 16 3 L 16 13 C 16 16 16 16 13 16 L 3 16 C 0 16 0 16 0 13 L 0 3 C 0 0 0 0 3 0" fill="rgb(249, 249, 249)" fill-opacity=" .85"></path><text y="21" style="font-size:12px;color:#333333;fill:#333333;"  x="8"></text></g></svg>