<svg xmlns:xlink="http://www.w3.org/1999/xlink" height="400" width="600" xmlns="http://www.w3.org/2000/svg" style="font-family:'lucida grande', 'lucida sans unicode', arial, helvetica, sans-serif;font-size:12px;" version="1.1"><desc>Created with Highcharts 4.0.4</desc><defs><clipPath id="highcharts-33"><rect height="282" width="574" y="0" x="0"></rect></clipPath></defs><rect class=" highcharts-background" fill="#FFFFFF" strokeWidth="0" height="400" width="600" y="0" x="0"></rect><g  class="highcharts-grid"><path opacity="1"  stroke-width="1" stroke="#C0C0C0" d="M 312.5 49 L 312.5 331" fill="none"></path><path opacity="1"  stroke-width="1" stroke="#C0C0C0" d="M 456.5 49 L 456.5 331" fill="none"></path><path opacity="1"  stroke-width="1" stroke="#C0C0C0" d="M 600.5 49 L 600.5 331" fill="none"></path><path opacity="1"  stroke-width="1" stroke="#C0C0C0" d="M 169.5 49 L 169.5 331" fill="none"></path><path opacity="1"  stroke-width="1" stroke="#C0C0C0" d="M 25.5 49 L 25.5 331" fill="none"></path></g><g  class="highcharts-grid"></g><g  class="highcharts-axis"><path visibility="visible"  stroke-width="1" stroke="#C0D0E0" d="M 26 331.5 L 600 331.5" fill="none"></path></g><g  class="highcharts-axis"><text y="190" visibility="visible" style="color:#707070;fill:#707070;" class=" highcharts-yaxis-title" transform="translate(0,0) rotate(270 16 190)" text-anchor="middle"  x="16">Values</text></g><g  class="highcharts-series-group"><g clip-path="url(#highcharts-33)" transform="translate(26,49) scale(1 1)"  visibility="visible" class="highcharts-series"></g><g clip-path="none" transform="translate(26,49) scale(1 1)"  visibility="visible" class="highcharts-markers"></g><g clip-path="url(#highcharts-33)" transform="translate(26,49) scale(1 1)"  visibility="visible" class="highcharts-series"></g><g clip-path="none" transform="translate(26,49) scale(1 1)"  visibility="visible" class="highcharts-markers"></g><g clip-path="url(#highcharts-33)" transform="translate(26,49) scale(1 1)"  visibility="visible" class="highcharts-series"></g><g clip-path="none" transform="translate(26,49) scale(1 1)"  visibility="visible" class="highcharts-markers"></g></g><text y="21" style="color:#333333;font-size:25px;font-weight:bold;font-family:th sarabunpsk;fill:#333333;width:556px;"  class="highcharts-title" text-anchor="middle" x="300"><tspan>รายได้เปรียบเทียบกับค่าใช้จ่าย ปี 2558</tspan></text><g opacity="1" transform="translate(26,49) scale(1 1)"  visibility="visible" class="highcharts-data-labels"><text style="color:#606060;cursor:default;font-size:13px;font-family:verdana, sans-serif;fill:#606060;" transform="translate(0,0) rotate(-90 0 -999)"  r="0" y="-999" x="0">27,455,000.00</text><text style="color:#606060;cursor:default;font-size:13px;font-family:verdana, sans-serif;fill:#606060;" transform="translate(0,0) rotate(-90 0 -999)"  r="0" y="-999" x="0">2,670,000.00</text><text style="color:#606060;cursor:default;font-size:13px;font-family:verdana, sans-serif;fill:#606060;" transform="translate(0,0) rotate(-90 0 -999)"  r="0" y="-999" x="0">0.00</text><text style="color:#606060;cursor:default;font-size:13px;font-family:verdana, sans-serif;fill:#606060;" transform="translate(0,0) rotate(-90 0 -999)"  r="0" y="-999" x="0">0.00</text></g><g opacity="1" transform="translate(26,49) scale(1 1)"  visibility="visible" class="highcharts-data-labels"><text style="color:#606060;cursor:default;font-size:13px;font-family:verdana, sans-serif;fill:#606060;" transform="translate(0,0) rotate(-90 0 -999)"  r="0" y="-999" x="0">0.00</text><text style="color:#606060;cursor:default;font-size:13px;font-family:verdana, sans-serif;fill:#606060;" transform="translate(0,0) rotate(-90 0 -999)"  r="0" y="-999" x="0">0.00</text><text style="color:#606060;cursor:default;font-size:13px;font-family:verdana, sans-serif;fill:#606060;" transform="translate(0,0) rotate(-90 0 -999)"  r="0" y="-999" x="0">799,060.00</text><text style="color:#606060;cursor:default;font-size:13px;font-family:verdana, sans-serif;fill:#606060;" transform="translate(0,0) rotate(-90 0 -999)"  r="0" y="-999" x="0">0.00</text></g><g opacity="1" transform="translate(26,49) scale(1 1)"  visibility="visible" class="highcharts-data-labels"><text style="color:#606060;cursor:default;font-size:13px;font-family:verdana, sans-serif;fill:#606060;" transform="translate(0,0) rotate(-90 0 -999)"  r="0" y="-999" x="0">0.00</text><text style="color:#606060;cursor:default;font-size:13px;font-family:verdana, sans-serif;fill:#606060;" transform="translate(0,0) rotate(-90 0 -999)"  r="0" y="-999" x="0">0.00</text><text style="color:#606060;cursor:default;font-size:13px;font-family:verdana, sans-serif;fill:#606060;" transform="translate(0,0) rotate(-90 0 -999)"  r="0" y="-999" x="0">0.00</text><text style="color:#606060;cursor:default;font-size:13px;font-family:verdana, sans-serif;fill:#606060;" transform="translate(0,0) rotate(-90 0 -999)"  r="0" y="-999" x="0">0.00</text></g><g transform="translate(90,372)"  class="highcharts-legend"><g ><g><g transform="translate(8,3)"  class="highcharts-legend-item"><text y="21"  text-anchor="start" style="color:#333333;font-size:18px;font-weight:bold;cursor:pointer;font-family:th sarabunpsk;fill:#333333;" x="21">กบศ.</text><rect fill="#BA514B"  height="12" width="16" y="10" x="0"></rect></g><g transform="translate(77,3)"  class="highcharts-legend-item"><text  text-anchor="start" style="color:#333333;font-size:18px;font-weight:bold;cursor:pointer;font-family:th sarabunpsk;fill:#333333;" y="21" x="21">กบจ.</text><rect fill="#5280BE"  height="12" width="16" y="10" x="0"></rect></g><g transform="translate(146,3)"  class="highcharts-legend-item"><text  text-anchor="start" style="color:#333333;font-size:18px;font-weight:bold;cursor:pointer;font-family:th sarabunpsk;fill:#333333;" y="21" x="21">กรษ.</text><rect fill="#8165A2"  height="12" width="16" y="10" x="0"></rect></g></g></g></g><g  class="highcharts-axis-labels highcharts-xaxis-labels"><text opacity="1" y="351" style="width:124px;color:#606060;cursor:default;font-size:11px;fill:#606060;" text-anchor="middle" x="97.75">รายได้</text><text opacity="1" y="351" style="width:124px;color:#606060;cursor:default;font-size:11px;fill:#606060;" text-anchor="middle" x="241.25">ค่าใช้จ่ายจ้างเหมา</text><text opacity="1" y="351" style="width:124px;color:#606060;cursor:default;font-size:11px;fill:#606060;" text-anchor="middle" x="384.75">ค่าใช้จ่ายดำเนินงาน</text><text opacity="1" y="351" style="width:124px;color:#606060;cursor:default;font-size:11px;fill:#606060;" text-anchor="middle" x="528.25">ค่าใช้จ่ายบริหารงาน</text></g><g  class="highcharts-axis-labels highcharts-yaxis-labels"></g><g transform="translate(0,-9999)" style="cursor:default;padding:0;white-space:nowrap;"  class="highcharts-tooltip"><path transform="translate(1, 1)" stroke-width="5" stroke-opacity="0.049999999999999996" stroke="black"  d="M 3 0 L 13 0 C 16 0 16 0 16 3 L 16 13 C 16 16 16 16 13 16 L 3 16 C 0 16 0 16 0 13 L 0 3 C 0 0 0 0 3 0" fill="none"></path><path transform="translate(1, 1)" stroke-width="3" stroke-opacity="0.09999999999999999" stroke="black"  d="M 3 0 L 13 0 C 16 0 16 0 16 3 L 16 13 C 16 16 16 16 13 16 L 3 16 C 0 16 0 16 0 13 L 0 3 C 0 0 0 0 3 0" fill="none"></path><path transform="translate(1, 1)" stroke-width="1" stroke-opacity="0.15" stroke="black"  d="M 3 0 L 13 0 C 16 0 16 0 16 3 L 16 13 C 16 16 16 16 13 16 L 3 16 C 0 16 0 16 0 13 L 0 3 C 0 0 0 0 3 0" fill="none"></path><path d="M 3 0 L 13 0 C 16 0 16 0 16 3 L 16 13 C 16 16 16 16 13 16 L 3 16 C 0 16 0 16 0 13 L 0 3 C 0 0 0 0 3 0" fill="rgb(249, 249, 249)" fill-opacity=" .85"></path><text y="21" style="font-size:12px;color:#333333;fill:#333333;"  x="8"></text></g></svg>