<svg xmlns:xlink="http://www.w3.org/1999/xlink" height="400" width="600" xmlns="http://www.w3.org/2000/svg" style="font-family:'lucida grande', 'lucida sans unicode', arial, helvetica, sans-serif;font-size:12px;" version="1.1"><desc>Created with Highcharts 4.0.4</desc><defs><clipPath id="highcharts-5"><rect height="400" width="600" y="0" x="0"></rect></clipPath></defs><rect class=" highcharts-background" fill="#FFFFFF" strokeWidth="0" height="400" width="600" y="0" x="0"></rect><g  class="highcharts-series-group"><g transform="translate(10,59) scale(1 1)"  visibility="visible" class="highcharts-series"><path visibility="visible" transform="translate(0,-10)"  d="M 0 0" fill="rgb(161,56,50)" fill-opacity="1"></path><path visibility="visible" transform="translate(0,-10)"  d="M 0 0" fill="rgb(161,56,50)" fill-opacity="1"></path><path visibility="visible" transform="translate(0,-10)"  d="M 0 0" fill="rgb(55,144,174)" fill-opacity="1"></path><path visibility="visible" transform="translate(0,-10)"  d="M 0 0" fill="rgb(55,144,174)" fill-opacity="1"></path><path visibility="visible" transform="translate(0,-10)"  d="M 0 0" fill="rgb(217,130,50)" fill-opacity="1"></path><path visibility="visible" transform="translate(0,-10)"  d="M 0 0" fill="rgb(217,130,50)" fill-opacity="1"></path><path visibility="visible" transform="translate(0,-10)"  d="M 0 0" fill="rgb(143,165,188)" fill-opacity="1"></path><path visibility="visible" transform="translate(0,-10)"  d="M 0 0" fill="rgb(143,165,188)" fill-opacity="1"></path><path visibility="visible" transform="translate(0,-10)"  d="M 0 0" fill="rgb(161,56,50)" fill-opacity="1"></path><path visibility="visible" transform="translate(0,-10)"  d="M 0 0" fill="rgb(161,56,50)" fill-opacity="1"></path><path visibility="visible" transform="translate(0,-10)"  d="M 0 0" fill="rgb(57,103,165)" fill-opacity="1"></path><path visibility="visible" transform="translate(0,-10)"  d="M 0 0" fill="rgb(57,103,165)" fill-opacity="1"></path><path visibility="visible" transform="translate(0,-10)"  d="M 0 0" fill="rgb(161,56,50)" fill-opacity="1"></path><path visibility="visible" transform="translate(0,-10)"  d="M 0 0" fill="rgb(161,56,50)" fill-opacity="1"></path><path visibility="visible" transform="translate(5,5)"  d="M 289.98645573195427 29.47740002640856 L 289.98645573195427 48.038953032555426 L 290 95.06155300614687 L 290 76.5 Z" fill="rgb(57,103,165)" fill-opacity="1"></path><path visibility="visible" transform="translate(-2,-7)"  d="M 289.973467805122 29.47740279374907 L 289.973467805122 48.038955799895945 L 290 95.06155300614687 L 290 76.5 Z" fill="rgb(132,162,66)" fill-opacity="1"></path><path visibility="visible" transform="translate(0,-10)"  d="M 0 0" fill="rgb(55,144,174)" fill-opacity="1"></path><path visibility="visible" transform="translate(0,-10)"  d="M 0 0" fill="rgb(55,144,174)" fill-opacity="1"></path><path visibility="visible" transform="translate(0,-10)"  d="M 0 0" fill="rgb(217,130,50)" fill-opacity="1"></path><path visibility="visible" transform="translate(0,-10)"  d="M 0 0" fill="rgb(217,130,50)" fill-opacity="1"></path><path visibility="visible" transform="translate(0,-10)"  d="M 0 0" fill="rgb(143,165,188)" fill-opacity="1"></path><path visibility="visible" transform="translate(0,-10)"  d="M 0 0" fill="rgb(143,165,188)" fill-opacity="1"></path><path visibility="visible" transform="translate(0,-10)"  d="M 0 0" fill="rgb(161,56,50)" fill-opacity="1"></path><path visibility="visible" transform="translate(0,-10)"  d="M 0 0" fill="rgb(161,56,50)" fill-opacity="1"></path><path visibility="visible" transform="translate(0,-10)"  d="M 0 0" fill="rgb(57,103,165)" fill-opacity="1"></path><path visibility="visible" transform="translate(0,-10)"  d="M 0 0" fill="rgb(57,103,165)" fill-opacity="1"></path><path visibility="visible" transform="translate(-6,-3)"  d="M 253.98026183947366 36.97261415899653 L 253.98026183947366 55.5341671651434 L 290 95.06155300614687 L 290 76.5 Z" fill="rgb(104,76,137)" fill-opacity="1"></path><path visibility="visible" transform="translate(-2,-7)"  d="M 253.98082084292605 36.97235946296181 C 265.2229222820911 31.85023149962113 276.5997171702889 29.481175819689515 289.973467805122 29.47740279374907 L 289.973467805122 48.038955799895945 C 276.5997171702889 48.042728825836384 265.2229222820911 50.411784505768 253.98082084292605 55.533912469108685 Z" fill="rgb(132,162,66)" fill-opacity="1"></path><path visibility="visible" transform="translate(-2,-7)"  d="M 290 76.5 C 290 76.5 290 76.5 290 76.5 L 290 95.06155300614687 C 290 95.06155300614687 290 95.06155300614687 290 95.06155300614687 Z" fill="rgb(132,162,66)" fill-opacity="1"></path><path visibility="visible" transform="translate(-2,-7)"  d="M 253.98082084292605 36.97235946296181 L 253.98082084292605 55.533912469108685 L 290 95.06155300614687 L 290 76.5 Z" fill="rgb(132,162,66)" fill-opacity="1"></path><path visibility="visible" transform="translate(5,5)"  d="M 224.11046734452282 82.85686583320775 L 224.11046734452282 101.41841883935462 L 290 95.06155300614687 L 290 76.5 Z" fill="rgb(57,103,165)" fill-opacity="1"></path><path visibility="visible" transform="translate(-6,-3)"  d="M 224.11037744815854 82.8563999235364 C 223.681823455178 80.6352321886354 223.5 78.74174382323561 223.5 76.5 L 223.5 95.06155300614687 C 223.5 97.30329682938248 223.681823455178 99.19678519478227 224.11037744815854 101.41795292968327 Z" fill="rgb(104,76,137)" fill-opacity="1"></path><path visibility="visible" transform="translate(-6,-3)"  d="M 290 76.5 C 290 76.5 290 76.5 290 76.5 L 290 95.06155300614687 C 290 95.06155300614687 290 95.06155300614687 290 95.06155300614687 Z" fill="rgb(104,76,137)" fill-opacity="1"></path><path visibility="visible" transform="translate(-6,-3)"  d="M 224.11037744815854 82.8563999235364 L 224.11037744815854 101.41795292968327 L 290 95.06155300614687 L 290 76.5 Z" fill="rgb(104,76,137)" fill-opacity="1"></path><path visibility="visible" transform="translate(5,5)"  d="M 356.5 76.5 C 356.5 102.46986540145946 326.72693586374777 123.52260094890542 290 123.52260094890542 C 256.44360246537366 123.52260094890542 228.64687138574521 106.36700039127291 224.11046734452282 82.85686583320775 L 224.11046734452282 101.41841883935462 C 229.07548839906542 127.14988191345702 262.6001818164104 145.1632884124483 298.9899658755085 141.65248835604726 C 332.2383170207406 138.44476629629682 356.5 118.7895092550727 356.5 95.06155300614687 Z" fill="rgb(57,103,165)" fill-opacity="1"></path><path visibility="visible" transform="translate(5,5)"  d="M 290 76.5 C 290 76.5 290 76.5 290 76.5 C 290 76.5 290 76.5 290 76.5 C 290 76.5 290 76.5 290 76.5 L 290 95.06155300614687 C 290 95.06155300614687 290 95.06155300614687 290 95.06155300614687 C 290 95.06155300614687 290 95.06155300614687 290 95.06155300614687 C 290 95.06155300614687 290 95.06155300614687 290 95.06155300614687 Z" fill="rgb(57,103,165)" fill-opacity="1"></path><g stroke-linejoin="round" stroke-width="1" stroke="#BA514B" ><path visibility="visible" transform="translate(0,-10)"  d="M 0 0" fill="#BA514B"></path></g><g stroke-linejoin="round" stroke-width="1" stroke="#5280BE" ><path visibility="visible" transform="translate(5,5)"  d="M 289.98645573195427 29.47740002640856 C 326.71339083393445 29.472110660722713 356.4925183280085 50.52055789341022 356.49999862069774 76.49042275621865 C 356.507478913387 102.46028761902707 326.7404793700259 123.51731060790559 290.01354426804573 123.52259997359144 C 256.4523853272624 123.5274334082896 228.64751516223893 106.37033679425966 224.11046734452282 82.85686583320775 L 290 76.5 C 290 76.5 290 76.5 290 76.5 C 290 76.5 290 76.5 290 76.5 C 290 76.5 290 76.5 290 76.5 Z" fill="#5280BE"></path></g><g stroke-linejoin="round" stroke-width="1" stroke="#8165A2" ><path visibility="visible" transform="translate(-6,-3)"  d="M 224.11037744815854 82.8563999235364 C 220.52628989154044 64.28030503184392 231.69254970012094 47.12756797615349 253.98026183947366 36.97261415899653 L 290 76.5 C 290 76.5 290 76.5 290 76.5 Z" fill="#8165A2"></path></g><g stroke-linejoin="round" stroke-width="1" stroke="#9DBB5B" ><path visibility="visible" transform="translate(-2,-7)"  d="M 253.98082084292605 36.97235946296181 C 265.2229222820911 31.85023149962113 276.5997171702889 29.481175819689515 289.973467805122 29.47740279374907 L 290 76.5 C 290 76.5 290 76.5 290 76.5 Z" fill="#9DBB5B"></path></g><g stroke-linejoin="round" stroke-width="1" stroke="#50A9C7" ><path visibility="visible" transform="translate(0,-10)"  d="M 0 0" fill="#50A9C7"></path></g><g stroke-linejoin="round" stroke-width="1" stroke="#F29B4B" ><path visibility="visible" transform="translate(0,-10)"  d="M 0 0" fill="#F29B4B"></path></g><g stroke-linejoin="round" stroke-width="1" stroke="#A8BED5" ><path visibility="visible" transform="translate(0,-10)"  d="M 0 0" fill="#A8BED5"></path></g><g stroke-linejoin="round" stroke-width="1" stroke="#BA514B" ><path visibility="visible" transform="translate(0,-10)"  d="M 0 0" fill="#BA514B"></path></g><g stroke-linejoin="round" stroke-width="1" stroke="#5280BE" ><path visibility="visible" transform="translate(0,-10)"  d="M 0 0" fill="#5280BE"></path></g></g><g transform="translate(10,59) scale(1 1)"  visibility="visible" class="highcharts-markers"></g></g><text y="31" style="color:#333333;font-size:25px;font-weight:bold;font-family:th sarabunpsk;fill:#333333;width:536px;"  class="highcharts-title" text-anchor="middle" x="300"><tspan>รายได้งานบริการวิศวกรรมของ กบว. ปี 2558</tspan></text><g transform="translate(90,232)"  class="highcharts-legend"><g ><g><g transform="translate(8,3)"  class="highcharts-legend-item"><text y="21"  text-anchor="start" style="color:#333333;font-size:18px;font-weight:bold;cursor:pointer;font-family:th sarabunpsk;fill:#333333;" x="21">งานก่อสร้างสถานีไฟฟ้า</text><rect fill="#BA514B"  height="12" width="16" y="10" x="0"></rect></g><g transform="translate(168,3)"  class="highcharts-legend-item"><text  text-anchor="start" style="color:#333333;font-size:18px;font-weight:bold;cursor:pointer;font-family:th sarabunpsk;fill:#333333;" y="21" x="21">งานก่อสร้างสายส่งและระบบจำหน่าย</text><rect fill="#5280BE"  height="12" width="16" y="10" x="0"></rect></g><g transform="translate(8,28)"  class="highcharts-legend-item"><text  text-anchor="start" style="color:#333333;font-size:18px;font-weight:bold;cursor:pointer;font-family:th sarabunpsk;fill:#333333;" y="21" x="21"><tspan> งานบำรุงรักษาไฟฟ้า</tspan></text><rect fill="#8165A2"  height="12" width="16" y="10" x="0"></rect></g><g transform="translate(154,28)"  class="highcharts-legend-item"><text  text-anchor="start" style="color:#333333;font-size:18px;font-weight:bold;cursor:pointer;font-family:th sarabunpsk;fill:#333333;" y="21" x="21">งานก่อสร้างติดตั้งเส้นใยแก้วนำแสง</text><rect fill="#9DBB5B"  height="12" width="16" y="10" x="0"></rect></g><g transform="translate(8,53)"  class="highcharts-legend-item"><text  text-anchor="start" style="color:#333333;font-size:18px;font-weight:bold;cursor:pointer;font-family:th sarabunpsk;fill:#333333;" y="21" x="21">งานระบบจำหน่าย,ขยายเขต</text><rect fill="#50A9C7"  height="12" width="16" y="10" x="0"></rect></g><g transform="translate(189,53)"  class="highcharts-legend-item"><text  text-anchor="start" style="color:#333333;font-size:18px;font-weight:bold;cursor:pointer;font-family:th sarabunpsk;fill:#333333;" y="21" x="21">งานจัดหาและติดตั้งอุปกรณ์ระบบสื่อสาร</text><rect fill="#F29B4B"  height="12" width="16" y="10" x="0"></rect></g><g transform="translate(8,78)"  class="highcharts-legend-item"><text  text-anchor="start" style="color:#333333;font-size:18px;font-weight:bold;cursor:pointer;font-family:th sarabunpsk;fill:#333333;" y="21" x="21">งานจัดหาและติดตั้งอุปกรณ์ระบบสื่อสารและติดตั้งเส้นใยแก้วนำแสง</text><rect fill="#A8BED5"  height="12" width="16" y="10" x="0"></rect></g><g transform="translate(8,103)"  class="highcharts-legend-item"><text  text-anchor="start" style="color:#333333;font-size:18px;font-weight:bold;cursor:pointer;font-family:th sarabunpsk;fill:#333333;" y="21" x="21">งานติดตั้งอุปกรณ์ภายในสถานีไฟฟ้า</text><rect fill="#BA514B"  height="12" width="16" y="10" x="0"></rect></g><g transform="translate(8,128)"  class="highcharts-legend-item"><text  text-anchor="start" style="color:#333333;font-size:18px;font-weight:bold;cursor:pointer;font-family:th sarabunpsk;fill:#333333;" y="21" x="21">งานติดตั้งอุปกรณ์ในระบบส่ง/ระบบจำหน่าย</text><rect fill="#5280BE"  height="12" width="16" y="10" x="0"></rect></g></g></g></g><g transform="translate(0,-9999)" style="cursor:default;padding:0;white-space:nowrap;"  class="highcharts-tooltip"><path transform="translate(1, 1)" stroke-width="5" stroke-opacity="0.049999999999999996" stroke="black"  d="M 3 0 L 13 0 C 16 0 16 0 16 3 L 16 13 C 16 16 16 16 13 16 L 3 16 C 0 16 0 16 0 13 L 0 3 C 0 0 0 0 3 0" fill="none"></path><path transform="translate(1, 1)" stroke-width="3" stroke-opacity="0.09999999999999999" stroke="black"  d="M 3 0 L 13 0 C 16 0 16 0 16 3 L 16 13 C 16 16 16 16 13 16 L 3 16 C 0 16 0 16 0 13 L 0 3 C 0 0 0 0 3 0" fill="none"></path><path transform="translate(1, 1)" stroke-width="1" stroke-opacity="0.15" stroke="black"  d="M 3 0 L 13 0 C 16 0 16 0 16 3 L 16 13 C 16 16 16 16 13 16 L 3 16 C 0 16 0 16 0 13 L 0 3 C 0 0 0 0 3 0" fill="none"></path><path d="M 3 0 L 13 0 C 16 0 16 0 16 3 L 16 13 C 16 16 16 16 13 16 L 3 16 C 0 16 0 16 0 13 L 0 3 C 0 0 0 0 3 0" fill="rgb(249, 249, 249)" fill-opacity=" .85"></path><text y="21" style="font-size:12px;color:#333333;fill:#333333;"  x="8"></text></g></svg>