<svg xmlns:xlink="http://www.w3.org/1999/xlink" height="400" width="600" xmlns="http://www.w3.org/2000/svg" style="font-family:'lucida grande', 'lucida sans unicode', arial, helvetica, sans-serif;font-size:12px;" version="1.1"><desc>Created with Highcharts 4.0.4</desc><defs><clipPath id="highcharts-8"><rect height="155.5" width="9999" y="8" x="0"></rect></clipPath><clipPath id="highcharts-9"><rect height="400" width="600" y="0" x="0"></rect></clipPath></defs><rect class=" highcharts-background" fill="#FFFFFF" strokeWidth="0" height="400" width="600" y="0" x="0"></rect><g  class="highcharts-series-group"><g transform="translate(10,59) scale(1 1)"  visibility="visible" class="highcharts-series"><path visibility="visible" transform="translate(0,-10)"  d="M 0 0" fill="rgb(161,56,50)" fill-opacity="1"></path><path visibility="visible" transform="translate(0,-10)"  d="M 0 0" fill="rgb(161,56,50)" fill-opacity="1"></path><path visibility="visible" transform="translate(0,-10)"  d="M 0 0" fill="rgb(57,103,165)" fill-opacity="1"></path><path visibility="visible" transform="translate(0,-10)"  d="M 0 0" fill="rgb(57,103,165)" fill-opacity="1"></path><path visibility="visible" transform="translate(0,-10)"  d="M 0 0" fill="rgb(104,76,137)" fill-opacity="1"></path><path visibility="visible" transform="translate(0,-10)"  d="M 0 0" fill="rgb(104,76,137)" fill-opacity="1"></path><path visibility="visible" transform="translate(0,-10)"  d="M 0 0" fill="rgb(132,162,66)" fill-opacity="1"></path><path visibility="visible" transform="translate(0,-10)"  d="M 0 0" fill="rgb(132,162,66)" fill-opacity="1"></path><path visibility="visible" transform="translate(0,-10)"  d="M 0 0" fill="rgb(132,162,66)" fill-opacity="1"></path><path visibility="visible" transform="translate(0,-10)"  d="M 0 0" fill="rgb(132,162,66)" fill-opacity="1"></path><path visibility="visible" transform="translate(0,-10)"  d="M 0 0" fill="rgb(55,144,174)" fill-opacity="1"></path><path visibility="visible" transform="translate(0,-10)"  d="M 0 0" fill="rgb(55,144,174)" fill-opacity="1"></path><path visibility="visible" transform="translate(0,-10)"  d="M 0 0" fill="rgb(217,130,50)" fill-opacity="1"></path><path visibility="visible" transform="translate(0,-10)"  d="M 0 0" fill="rgb(217,130,50)" fill-opacity="1"></path><path visibility="visible" transform="translate(0,-10)"  d="M 0 0" fill="rgb(143,165,188)" fill-opacity="1"></path><path visibility="visible" transform="translate(0,-10)"  d="M 0 0" fill="rgb(143,165,188)" fill-opacity="1"></path><path visibility="visible" transform="translate(0,-10)"  d="M 0 0" fill="rgb(161,56,50)" fill-opacity="1"></path><path visibility="visible" transform="translate(0,-10)"  d="M 0 0" fill="rgb(161,56,50)" fill-opacity="1"></path><path visibility="visible" transform="translate(0,-10)"  d="M 0 0" fill="rgb(57,103,165)" fill-opacity="1"></path><path visibility="visible" transform="translate(0,-10)"  d="M 0 0" fill="rgb(57,103,165)" fill-opacity="1"></path><path visibility="visible" transform="translate(0,-10)"  d="M 0 0" fill="rgb(104,76,137)" fill-opacity="1"></path><path visibility="visible" transform="translate(0,-10)"  d="M 0 0" fill="rgb(104,76,137)" fill-opacity="1"></path><path visibility="visible" transform="translate(0,-10)"  d="M 0 0" fill="rgb(132,162,66)" fill-opacity="1"></path><path visibility="visible" transform="translate(0,-10)"  d="M 0 0" fill="rgb(132,162,66)" fill-opacity="1"></path><path visibility="visible" transform="translate(0,-10)"  d="M 0 0" fill="rgb(161,56,50)" fill-opacity="1"></path><path visibility="visible" transform="translate(0,-10)"  d="M 0 0" fill="rgb(161,56,50)" fill-opacity="1"></path><path visibility="visible" transform="translate(0,-10)"  d="M 0 0" fill="rgb(57,103,165)" fill-opacity="1"></path><path visibility="visible" transform="translate(0,-10)"  d="M 0 0" fill="rgb(57,103,165)" fill-opacity="1"></path><path visibility="visible" transform="translate(0,-10)"  d="M 0 0" fill="rgb(104,76,137)" fill-opacity="1"></path><path visibility="visible" transform="translate(0,-10)"  d="M 0 0" fill="rgb(104,76,137)" fill-opacity="1"></path><path visibility="visible" transform="translate(0,-10)"  d="M 0 0" fill="rgb(132,162,66)" fill-opacity="1"></path><path visibility="visible" transform="translate(0,-10)"  d="M 0 0" fill="rgb(132,162,66)" fill-opacity="1"></path><path visibility="visible" transform="translate(5,5)"  d="M 289.9895108300097 25.08400152421114 L 289.9895108300097 43.64555453035801 L 290 80.06155300614687 L 290 61.5 Z" fill="rgb(55,144,174)" fill-opacity="1"></path><path visibility="visible" transform="translate(-5,-5)"  d="M 289.9794525107336 25.08400366733951 L 289.9794525107336 43.64555667348638 L 290 80.06155300614687 L 290 61.5 Z" fill="rgb(104,76,137)" fill-opacity="1"></path><path visibility="visible" transform="translate(0,-10)"  d="M 0 0" fill="rgb(132,162,66)" fill-opacity="1"></path><path visibility="visible" transform="translate(0,-10)"  d="M 0 0" fill="rgb(132,162,66)" fill-opacity="1"></path><path visibility="visible" transform="translate(0,-10)"  d="M 0 0" fill="rgb(55,144,174)" fill-opacity="1"></path><path visibility="visible" transform="translate(0,-10)"  d="M 0 0" fill="rgb(55,144,174)" fill-opacity="1"></path><path visibility="visible" transform="translate(0,-10)"  d="M 0 0" fill="rgb(217,130,50)" fill-opacity="1"></path><path visibility="visible" transform="translate(0,-10)"  d="M 0 0" fill="rgb(217,130,50)" fill-opacity="1"></path><path visibility="visible" transform="translate(0,-10)"  d="M 0 0" fill="rgb(143,165,188)" fill-opacity="1"></path><path visibility="visible" transform="translate(0,-10)"  d="M 0 0" fill="rgb(143,165,188)" fill-opacity="1"></path><path visibility="visible" transform="translate(0,-10)"  d="M 0 0" fill="rgb(161,56,50)" fill-opacity="1"></path><path visibility="visible" transform="translate(0,-10)"  d="M 0 0" fill="rgb(161,56,50)" fill-opacity="1"></path><path visibility="visible" transform="translate(0,-10)"  d="M 0 0" fill="rgb(57,103,165)" fill-opacity="1"></path><path visibility="visible" transform="translate(0,-10)"  d="M 0 0" fill="rgb(57,103,165)" fill-opacity="1"></path><path visibility="visible" transform="translate(0,-10)"  d="M 0 0" fill="rgb(104,76,137)" fill-opacity="1"></path><path visibility="visible" transform="translate(0,-10)"  d="M 0 0" fill="rgb(104,76,137)" fill-opacity="1"></path><path visibility="visible" transform="translate(0,-10)"  d="M 0 0" fill="rgb(132,162,66)" fill-opacity="1"></path><path visibility="visible" transform="translate(0,-10)"  d="M 0 0" fill="rgb(132,162,66)" fill-opacity="1"></path><path visibility="visible" transform="translate(5,5)"  d="M 238.89159552881614 57.01775768114474 L 238.89159552881614 75.57931068729161 L 290 80.06155300614687 L 290 61.5 Z" fill="rgb(55,144,174)" fill-opacity="1"></path><path visibility="visible" transform="translate(-10,-1)"  d="M 0 0" fill="rgb(217,130,50)" fill-opacity="1"></path><path visibility="visible" transform="translate(-10,-1)"  d="M 0 0" fill="rgb(217,130,50)" fill-opacity="1"></path><path visibility="visible" transform="translate(-10,-1)"  d="M 0 0" fill="rgb(217,130,50)" fill-opacity="1"></path><path visibility="visible" transform="translate(-10,-1)"  d="M 0 0" fill="rgb(217,130,50)" fill-opacity="1"></path><path visibility="visible" transform="translate(-10,-1)"  d="M 0 0" fill="rgb(143,165,188)" fill-opacity="1"></path><path visibility="visible" transform="translate(-10,-1)"  d="M 0 0" fill="rgb(143,165,188)" fill-opacity="1"></path><path visibility="visible" transform="translate(-10,-1)"  d="M 0 0" fill="rgb(143,165,188)" fill-opacity="1"></path><path visibility="visible" transform="translate(-10,-1)"  d="M 0 0" fill="rgb(143,165,188)" fill-opacity="1"></path><path visibility="visible" transform="translate(-10,-1)"  d="M 0 0" fill="rgb(161,56,50)" fill-opacity="1"></path><path visibility="visible" transform="translate(-10,-1)"  d="M 0 0" fill="rgb(161,56,50)" fill-opacity="1"></path><path visibility="visible" transform="translate(-10,-1)"  d="M 0 0" fill="rgb(161,56,50)" fill-opacity="1"></path><path visibility="visible" transform="translate(-10,-1)"  d="M 0 0" fill="rgb(161,56,50)" fill-opacity="1"></path><path visibility="visible" transform="translate(-10,-1)"  d="M 0 0" fill="rgb(57,103,165)" fill-opacity="1"></path><path visibility="visible" transform="translate(-10,-1)"  d="M 0 0" fill="rgb(57,103,165)" fill-opacity="1"></path><path visibility="visible" transform="translate(-10,-1)"  d="M 0 0" fill="rgb(57,103,165)" fill-opacity="1"></path><path visibility="visible" transform="translate(-10,-1)"  d="M 0 0" fill="rgb(57,103,165)" fill-opacity="1"></path><path visibility="visible" transform="translate(-5,-5)"  d="M 238.89165891985033 57.01739629037508 C 242.11683958856835 38.63147101796925 263.77857127913563 25.091395505818372 289.9794525107336 25.08400366733951 L 289.9794525107336 43.64555667348638 C 263.77857127913563 43.65294851196524 242.11683958856835 57.19302402411611 238.89165891985033 75.57894929652196 Z" fill="rgb(104,76,137)" fill-opacity="1"></path><path visibility="visible" transform="translate(-5,-5)"  d="M 290 61.5 C 290 61.5 290 61.5 290 61.5 L 290 80.06155300614687 C 290 80.06155300614687 290 80.06155300614687 290 80.06155300614687 Z" fill="rgb(104,76,137)" fill-opacity="1"></path><path visibility="visible" transform="translate(-5,-5)"  d="M 238.89165891985033 57.01739629037508 L 238.89165891985033 75.57894929652196 L 290 80.06155300614687 L 290 61.5 Z" fill="rgb(104,76,137)" fill-opacity="1"></path><path visibility="visible" transform="translate(5,5)"  d="M 341.5 61.5 C 341.5 81.61200102519041 318.44266461628587 97.91599923110721 290 97.91599923110721 C 261.55733538371413 97.91599923110721 238.5 81.61200102519042 238.5 61.50000000000001 L 238.5 80.06155300614688 C 238.5 100.17355403133729 261.55733538371413 116.47755223725407 290 116.47755223725407 C 318.44266461628587 116.47755223725407 341.5 100.17355403133728 341.5 80.06155300614687 Z" fill="rgb(55,144,174)" fill-opacity="1"></path><path visibility="visible" transform="translate(5,5)"  d="M 290 61.5 C 290 61.5 290 61.5 290 61.5 C 290 61.5 290 61.5 290 61.5 C 290 61.5 290 61.5 290 61.5 C 290 61.5 290 61.5 290 61.5 L 290 80.06155300614687 C 290 80.06155300614687 290 80.06155300614687 290 80.06155300614687 C 290 80.06155300614687 290 80.06155300614687 290 80.06155300614687 C 290 80.06155300614687 290 80.06155300614687 290 80.06155300614687 C 290 80.06155300614687 290 80.06155300614687 290 80.06155300614687 Z" fill="rgb(55,144,174)" fill-opacity="1"></path><g stroke-linejoin="round" stroke-width="1" stroke="#BA514B" ><path visibility="visible" transform="translate(0,-10)"  d="M 0 0" fill="#BA514B"></path></g><g stroke-linejoin="round" stroke-width="1" stroke="#5280BE" ><path visibility="visible" transform="translate(0,-10)"  d="M 0 0" fill="#5280BE"></path></g><g stroke-linejoin="round" stroke-width="1" stroke="#8165A2" ><path visibility="visible" transform="translate(0,-10)"  d="M 0 0" fill="#8165A2"></path></g><g stroke-linejoin="round" stroke-width="1" stroke="#9DBB5B" ><path visibility="visible" transform="translate(0,-10)"  d="M 0 0" fill="#9DBB5B"></path></g><g stroke-linejoin="round" stroke-width="1" stroke="#50A9C7" ><path visibility="visible" transform="translate(5,5)"  d="M 289.9895108300097 25.08400152421114 C 318.43217485635523 25.079905248529617 341.4942059231945 41.38058242873123 341.49999893181854 61.49258303677084 C 341.5057919404426 81.60458364481045 318.45315319633585 97.91190220010733 290.0104891699903 97.91599847578885 C 261.56782514364477 97.92009475147037 238.50579407680547 81.61941757126877 238.50000106818143 61.50741696322916 C 238.49954523456356 59.92486692841359 238.61612473717022 58.588274359840604 238.89159552881614 57.01775768114474 L 290 61.5 C 290 61.5 290 61.5 290 61.5 C 290 61.5 290 61.5 290 61.5 C 290 61.5 290 61.5 290 61.5 C 290 61.5 290 61.5 290 61.5 Z" fill="#50A9C7"></path></g><g stroke-linejoin="round" stroke-width="1" stroke="#F29B4B" ><path visibility="visible" transform="translate(-10,-1)"  d="M 0 0" fill="#F29B4B"></path></g><g stroke-linejoin="round" stroke-width="1" stroke="#A8BED5" ><path visibility="visible" transform="translate(-10,-1)"  d="M 0 0" fill="#A8BED5"></path></g><g stroke-linejoin="round" stroke-width="1" stroke="#BA514B" ><path visibility="visible" transform="translate(-10,-1)"  d="M 0 0" fill="#BA514B"></path></g><g stroke-linejoin="round" stroke-width="1" stroke="#5280BE" ><path visibility="visible" transform="translate(-10,-1)"  d="M 0 0" fill="#5280BE"></path></g><g stroke-linejoin="round" stroke-width="1" stroke="#8165A2" ><path visibility="visible" transform="translate(-5,-5)"  d="M 238.89165891985033 57.01739629037508 C 242.11683958856835 38.63147101796925 263.77857127913563 25.091395505818372 289.9794525107336 25.08400366733951 L 290 61.5 C 290 61.5 290 61.5 290 61.5 Z" fill="#8165A2"></path></g><g stroke-linejoin="round" stroke-width="1" stroke="#9DBB5B" ><path visibility="visible" transform="translate(0,-10)"  d="M 0 0" fill="#9DBB5B"></path></g><g stroke-linejoin="round" stroke-width="1" stroke="#50A9C7" ><path visibility="visible" transform="translate(0,-10)"  d="M 0 0" fill="#50A9C7"></path></g><g stroke-linejoin="round" stroke-width="1" stroke="#F29B4B" ><path visibility="visible" transform="translate(0,-10)"  d="M 0 0" fill="#F29B4B"></path></g><g stroke-linejoin="round" stroke-width="1" stroke="#A8BED5" ><path visibility="visible" transform="translate(0,-10)"  d="M 0 0" fill="#A8BED5"></path></g><g stroke-linejoin="round" stroke-width="1" stroke="#BA514B" ><path visibility="visible" transform="translate(0,-10)"  d="M 0 0" fill="#BA514B"></path></g><g stroke-linejoin="round" stroke-width="1" stroke="#5280BE" ><path visibility="visible" transform="translate(0,-10)"  d="M 0 0" fill="#5280BE"></path></g><g stroke-linejoin="round" stroke-width="1" stroke="#8165A2" ><path visibility="visible" transform="translate(0,-10)"  d="M 0 0" fill="#8165A2"></path></g><g stroke-linejoin="round" stroke-width="1" stroke="#9DBB5B" ><path visibility="visible" transform="translate(0,-10)"  d="M 0 0" fill="#9DBB5B"></path></g></g><g transform="translate(10,59) scale(1 1)"  visibility="visible" class="highcharts-markers"></g></g><text y="31" style="color:#333333;font-size:25px;font-weight:bold;font-family:th sarabunpsk;fill:#333333;width:536px;"  class="highcharts-title" text-anchor="middle" x="300"><tspan>ค่าใช้จ่ายงานบริการวิศวกรรมตามสัญญา  ปี 2558</tspan></text><g transform="translate(90,202)"  class="highcharts-legend"><g clip-path="url(#highcharts-8)" ><g transform="translate(0,0)"><g transform="translate(8,3)"  class="highcharts-legend-item"><text y="21"  text-anchor="start" style="color:#333333;font-size:18px;font-weight:bold;cursor:pointer;font-family:th sarabunpsk;fill:#333333;" x="21">ค่าจ้างเหมางานก่อสร้างสถานีไฟฟ้า</text><rect fill="#BA514B"  height="12" width="16" y="10" x="0"></rect></g><g transform="translate(8,28)"  class="highcharts-legend-item"><text  text-anchor="start" style="color:#333333;font-size:18px;font-weight:bold;cursor:pointer;font-family:th sarabunpsk;fill:#333333;" y="21" x="21">ค่าดำเนินงานงานก่อสร้างสถานีไฟฟ้า</text><rect fill="#5280BE"  height="12" width="16" y="10" x="0"></rect></g><g transform="translate(8,53)"  class="highcharts-legend-item"><text  text-anchor="start" style="color:#333333;font-size:18px;font-weight:bold;cursor:pointer;font-family:th sarabunpsk;fill:#333333;" y="21" x="21">ค่าจ้างเหมางานก่อสร้างสายส่งและระบบจำหน่าย</text><rect fill="#8165A2"  height="12" width="16" y="10" x="0"></rect></g><g transform="translate(8,78)"  class="highcharts-legend-item"><text  text-anchor="start" style="color:#333333;font-size:18px;font-weight:bold;cursor:pointer;font-family:th sarabunpsk;fill:#333333;" y="21" x="21">ค่าดำเนินงานงานก่อสร้างสายส่งและระบบจำหน่าย</text><rect fill="#9DBB5B"  height="12" width="16" y="10" x="0"></rect></g><g transform="translate(8,103)"  class="highcharts-legend-item"><text  text-anchor="start" style="color:#333333;font-size:18px;font-weight:bold;cursor:pointer;font-family:th sarabunpsk;fill:#333333;" y="21" x="21"><tspan>ค่าจ้างเหมา งานบำรุงรักษาไฟฟ้า</tspan></text><rect fill="#50A9C7"  height="12" width="16" y="10" x="0"></rect></g><g transform="translate(8,128)"  class="highcharts-legend-item"><text  text-anchor="start" style="color:#333333;font-size:18px;font-weight:bold;cursor:pointer;font-family:th sarabunpsk;fill:#333333;" y="21" x="21"><tspan>ค่าดำเนินงาน งานบำรุงรักษาไฟฟ้า</tspan></text><rect fill="#F29B4B"  height="12" width="16" y="10" x="0"></rect></g><g transform="translate(8,153)"  class="highcharts-legend-item"><text  text-anchor="start" style="color:#333333;font-size:18px;font-weight:bold;cursor:pointer;font-family:th sarabunpsk;fill:#333333;" y="21" x="21">ค่าจ้างเหมางานก่อสร้างติดตั้งเส้นใยแก้วนำแสง</text><rect fill="#A8BED5"  height="12" width="16" y="10" x="0"></rect></g><g transform="translate(8,178)"  class="highcharts-legend-item"><text  text-anchor="start" style="color:#333333;font-size:18px;font-weight:bold;cursor:pointer;font-family:th sarabunpsk;fill:#333333;" y="21" x="21">ค่าดำเนินงานงานก่อสร้างติดตั้งเส้นใยแก้วนำแสง</text><rect fill="#BA514B"  height="12" width="16" y="10" x="0"></rect></g><g transform="translate(8,203)"  class="highcharts-legend-item"><text  text-anchor="start" style="color:#333333;font-size:18px;font-weight:bold;cursor:pointer;font-family:th sarabunpsk;fill:#333333;" y="21" x="21">ค่าจ้างเหมางานระบบจำหน่าย,ขยายเขต</text><rect fill="#5280BE"  height="12" width="16" y="10" x="0"></rect></g><g transform="translate(8,228)"  class="highcharts-legend-item"><text  text-anchor="start" style="color:#333333;font-size:18px;font-weight:bold;cursor:pointer;font-family:th sarabunpsk;fill:#333333;" y="21" x="21">ค่าดำเนินงานงานระบบจำหน่าย,ขยายเขต</text><rect fill="#8165A2"  height="12" width="16" y="10" x="0"></rect></g><g transform="translate(8,253)"  class="highcharts-legend-item"><text  text-anchor="start" style="color:#333333;font-size:18px;font-weight:bold;cursor:pointer;font-family:th sarabunpsk;fill:#333333;" y="21" x="21">ค่าจ้างเหมางานจัดหาและติดตั้งอุปกรณ์ระบบสื่อสาร</text><rect fill="#9DBB5B"  height="12" width="16" y="10" x="0"></rect></g><g transform="translate(8,278)"  class="highcharts-legend-item"><text  text-anchor="start" style="color:#333333;font-size:18px;font-weight:bold;cursor:pointer;font-family:th sarabunpsk;fill:#333333;" y="21" x="21">ค่าดำเนินงานงานจัดหาและติดตั้งอุปกรณ์ระบบสื่อสาร</text><rect fill="#50A9C7"  height="12" width="16" y="10" x="0"></rect></g><g transform="translate(8,303)"  class="highcharts-legend-item"><text  text-anchor="start" style="color:#333333;font-size:18px;font-weight:bold;cursor:pointer;font-family:th sarabunpsk;fill:#333333;" y="21" x="21">ค่าจ้างเหมางานจัดหาและติดตั้งอุปกรณ์ระบบสื่อสารและติดตั้งเส้นใยแก้วนำแสง</text><rect fill="#F29B4B"  height="12" width="16" y="10" x="0"></rect></g><g transform="translate(8,328)"  class="highcharts-legend-item"><text  text-anchor="start" style="color:#333333;font-size:18px;font-weight:bold;cursor:pointer;font-family:th sarabunpsk;fill:#333333;" y="21" x="21">ค่าดำเนินงานงานจัดหาและติดตั้งอุปกรณ์ระบบสื่อสารและติดตั้งเส้นใยแก้วนำแสง</text><rect fill="#A8BED5"  height="12" width="16" y="10" x="0"></rect></g><g transform="translate(8,353)"  class="highcharts-legend-item"><text  text-anchor="start" style="color:#333333;font-size:18px;font-weight:bold;cursor:pointer;font-family:th sarabunpsk;fill:#333333;" y="21" x="21">ค่าจ้างเหมางานติดตั้งอุปกรณ์ภายในสถานีไฟฟ้า</text><rect fill="#BA514B"  height="12" width="16" y="10" x="0"></rect></g><g transform="translate(8,378)"  class="highcharts-legend-item"><text  text-anchor="start" style="color:#333333;font-size:18px;font-weight:bold;cursor:pointer;font-family:th sarabunpsk;fill:#333333;" y="21" x="21">ค่าดำเนินงานงานติดตั้งอุปกรณ์ภายในสถานีไฟฟ้า</text><rect fill="#5280BE"  height="12" width="16" y="10" x="0"></rect></g><g transform="translate(8,403)"  class="highcharts-legend-item"><text  text-anchor="start" style="color:#333333;font-size:18px;font-weight:bold;cursor:pointer;font-family:th sarabunpsk;fill:#333333;" y="21" x="21">ค่าจ้างเหมางานติดตั้งอุปกรณ์ในระบบส่ง/ระบบจำหน่าย</text><rect fill="#8165A2"  height="12" width="16" y="10" x="0"></rect></g><g transform="translate(8,428)"  class="highcharts-legend-item"><text  text-anchor="start" style="color:#333333;font-size:18px;font-weight:bold;cursor:pointer;font-family:th sarabunpsk;fill:#333333;" y="21" x="21">ค่าดำเนินงานงานติดตั้งอุปกรณ์ในระบบส่ง/ระบบจำหน่าย</text><rect fill="#9DBB5B"  height="12" width="16" y="10" x="0"></rect></g></g></g><g transform="translate(8,170.5)" visibility="visible" ><path style="cursor:default;" d="M 6 0 L 12 12 0 12 Z" fill="#CCC"></path><text style="" y="10" x="15">1/3</text><path style="cursor:pointer;" d="M 43 0 L 55 0 49 12 Z" fill="#274b6d"></path></g></g><g transform="translate(0,-9999)" style="cursor:default;padding:0;white-space:nowrap;"  class="highcharts-tooltip"><path transform="translate(1, 1)" stroke-width="5" stroke-opacity="0.049999999999999996" stroke="black"  d="M 3 0 L 13 0 C 16 0 16 0 16 3 L 16 13 C 16 16 16 16 13 16 L 3 16 C 0 16 0 16 0 13 L 0 3 C 0 0 0 0 3 0" fill="none"></path><path transform="translate(1, 1)" stroke-width="3" stroke-opacity="0.09999999999999999" stroke="black"  d="M 3 0 L 13 0 C 16 0 16 0 16 3 L 16 13 C 16 16 16 16 13 16 L 3 16 C 0 16 0 16 0 13 L 0 3 C 0 0 0 0 3 0" fill="none"></path><path transform="translate(1, 1)" stroke-width="1" stroke-opacity="0.15" stroke="black"  d="M 3 0 L 13 0 C 16 0 16 0 16 3 L 16 13 C 16 16 16 16 13 16 L 3 16 C 0 16 0 16 0 13 L 0 3 C 0 0 0 0 3 0" fill="none"></path><path d="M 3 0 L 13 0 C 16 0 16 0 16 3 L 16 13 C 16 16 16 16 13 16 L 3 16 C 0 16 0 16 0 13 L 0 3 C 0 0 0 0 3 0" fill="rgb(249, 249, 249)" fill-opacity=" .85"></path><text y="21" style="font-size:12px;color:#333333;fill:#333333;"  x="8"></text></g></svg>