<svg xmlns:xlink="http://www.w3.org/1999/xlink" height="400" width="600" xmlns="http://www.w3.org/2000/svg" style="font-family:'lucida grande', 'lucida sans unicode', arial, helvetica, sans-serif;font-size:12px;" version="1.1"><desc>Created with Highcharts 4.0.4</desc><defs><clipPath id="highcharts-31"><rect height="400" width="600" y="0" x="0"></rect></clipPath></defs><rect class=" highcharts-background" fill="#FFFFFF" strokeWidth="0" height="400" width="600" y="0" x="0"></rect><g  class="highcharts-series-group"><g transform="translate(10,89) scale(1 1)"  visibility="visible" class="highcharts-series"><path visibility="visible" transform="translate(0,-10)"  d="M 0 0" fill="rgb(161,56,50)" fill-opacity="1"></path><path visibility="visible" transform="translate(0,-10)"  d="M 0 0" fill="rgb(161,56,50)" fill-opacity="1"></path><path visibility="visible" transform="translate(0,-10)"  d="M 0 0" fill="rgb(57,103,165)" fill-opacity="1"></path><path visibility="visible" transform="translate(0,-10)"  d="M 0 0" fill="rgb(57,103,165)" fill-opacity="1"></path><path visibility="visible" transform="translate(0,-10)"  d="M 0 0" fill="rgb(132,162,66)" fill-opacity="1"></path><path visibility="visible" transform="translate(0,-10)"  d="M 0 0" fill="rgb(132,162,66)" fill-opacity="1"></path><path visibility="visible" transform="translate(0,-10)"  d="M 0 0" fill="rgb(161,56,50)" fill-opacity="1"></path><path visibility="visible" transform="translate(0,-10)"  d="M 0 0" fill="rgb(161,56,50)" fill-opacity="1"></path><path visibility="visible" transform="translate(0,-10)"  d="M 0 0" fill="rgb(57,103,165)" fill-opacity="1"></path><path visibility="visible" transform="translate(0,-10)"  d="M 0 0" fill="rgb(57,103,165)" fill-opacity="1"></path><path visibility="visible" transform="translate(0,7)"  d="M 289.9545162373521 43.389833360712686 L 289.9545162373521 61.95138636685955 L 290 142.56155300614688 L 290 124 Z" fill="rgb(104,76,137)" fill-opacity="1"></path><path visibility="visible" transform="translate(0,7)"  d="M 289.97678125477876 43.389828616700385 L 289.97678125477876 61.95138162284725 L 290 142.56155300614688 L 290 124 Z" fill="rgb(104,76,137)" fill-opacity="1"></path><path visibility="visible" transform="translate(0,-10)"  d="M 0 0" fill="rgb(132,162,66)" fill-opacity="1"></path><path visibility="visible" transform="translate(0,-10)"  d="M 0 0" fill="rgb(132,162,66)" fill-opacity="1"></path><path visibility="visible" transform="translate(0,7)"  d="M 404 124 C 404 168.5197692596448 352.9604614807105 204.61017305526644 290 204.61017305526644 C 227.03953851928952 204.61017305526644 176 168.51976925964482 176 124.00000000000001 L 176 142.56155300614688 C 176 187.0813222657917 227.03953851928952 223.17172606141332 290 223.17172606141332 C 352.9604614807105 223.17172606141332 404 187.08132226579167 404 142.56155300614688 Z" fill="rgb(104,76,137)" fill-opacity="1"></path><path visibility="visible" transform="translate(0,7)"  d="M 290 124 C 290 124 290 124 290 124 C 290 124 290 124 290 124 C 290 124 290 124 290 124 C 290 124 290 124 290 124 L 290 142.56155300614688 C 290 142.56155300614688 290 142.56155300614688 290 142.56155300614688 C 290 142.56155300614688 290 142.56155300614688 290 142.56155300614688 C 290 142.56155300614688 290 142.56155300614688 290 142.56155300614688 C 290 142.56155300614688 290 142.56155300614688 290 142.56155300614688 Z" fill="rgb(104,76,137)" fill-opacity="1"></path><g stroke-linejoin="round" stroke-width="1" stroke="#BA514B" ><path visibility="visible" transform="translate(0,-10)"  d="M 0 0" fill="#BA514B"></path></g><g stroke-linejoin="round" stroke-width="1" stroke="#5280BE" ><path visibility="visible" transform="translate(0,-10)"  d="M 0 0" fill="#5280BE"></path></g><g stroke-linejoin="round" stroke-width="1" stroke="#8165A2" ><path visibility="visible" transform="translate(0,7)"  d="M 289.97678125477876 43.389828616700385 C 352.9372414296019 43.3807611326675 403.98717427658596 79.46381353156039 403.99999763548186 123.98358186780341 C 404.01282099437776 168.50335020404643 352.9836789200444 204.60110389926672 290.02321874522124 204.61017138329962 C 227.06275857039807 204.6192388673325 176.01282572341404 168.5361864684396 176.00000236451814 124.01641813219659 C 175.98718060003267 79.50218522422091 227.00188804510157 43.407593666379654 289.9545162373521 43.389833360712686 L 290 124 C 290 124 290 124 290 124 C 290 124 290 124 290 124 C 290 124 290 124 290 124 C 290 124 290 124 290 124 Z" fill="#8165A2"></path></g><g stroke-linejoin="round" stroke-width="1" stroke="#9DBB5B" ><path visibility="visible" transform="translate(0,-10)"  d="M 0 0" fill="#9DBB5B"></path></g></g><g transform="translate(10,89) scale(1 1)"  visibility="visible" class="highcharts-markers"></g></g><text y="31" style="color:#333333;font-size:25px;font-weight:bold;font-family:th sarabunpsk;fill:#333333;width:536px;"  class="highcharts-title" text-anchor="middle" x="300"><tspan>รายได้เปรียบเทียบกับค่าใช้จ่าย ของกองบริการวิศวกรรมระบบจำหน่าย ปี</tspan><tspan x="300" dy="30">2558</tspan></text><g transform="translate(90,357)"  class="highcharts-legend"><g ><g><g transform="translate(8,3)"  class="highcharts-legend-item"><text y="21"  text-anchor="start" style="color:#333333;font-size:18px;font-weight:bold;cursor:pointer;font-family:th sarabunpsk;fill:#333333;" x="21">รายได้</text><rect fill="#BA514B"  height="12" width="16" y="10" x="0"></rect></g><g transform="translate(85,3)"  class="highcharts-legend-item"><text  text-anchor="start" style="color:#333333;font-size:18px;font-weight:bold;cursor:pointer;font-family:th sarabunpsk;fill:#333333;" y="21" x="21">ค่าจ้างเหมา</text><rect fill="#5280BE"  height="12" width="16" y="10" x="0"></rect></g><g transform="translate(187,3)"  class="highcharts-legend-item"><text  text-anchor="start" style="color:#333333;font-size:18px;font-weight:bold;cursor:pointer;font-family:th sarabunpsk;fill:#333333;" y="21" x="21">ค่าดำเนินงาน</text><rect fill="#8165A2"  height="12" width="16" y="10" x="0"></rect></g><g transform="translate(297,3)"  class="highcharts-legend-item"><text  text-anchor="start" style="color:#333333;font-size:18px;font-weight:bold;cursor:pointer;font-family:th sarabunpsk;fill:#333333;" y="21" x="21">ค่าบริหารงาน</text><rect fill="#9DBB5B"  height="12" width="16" y="10" x="0"></rect></g></g></g></g><g transform="translate(0,-9999)" style="cursor:default;padding:0;white-space:nowrap;"  class="highcharts-tooltip"><path transform="translate(1, 1)" stroke-width="5" stroke-opacity="0.049999999999999996" stroke="black"  d="M 3 0 L 13 0 C 16 0 16 0 16 3 L 16 13 C 16 16 16 16 13 16 L 3 16 C 0 16 0 16 0 13 L 0 3 C 0 0 0 0 3 0" fill="none"></path><path transform="translate(1, 1)" stroke-width="3" stroke-opacity="0.09999999999999999" stroke="black"  d="M 3 0 L 13 0 C 16 0 16 0 16 3 L 16 13 C 16 16 16 16 13 16 L 3 16 C 0 16 0 16 0 13 L 0 3 C 0 0 0 0 3 0" fill="none"></path><path transform="translate(1, 1)" stroke-width="1" stroke-opacity="0.15" stroke="black"  d="M 3 0 L 13 0 C 16 0 16 0 16 3 L 16 13 C 16 16 16 16 13 16 L 3 16 C 0 16 0 16 0 13 L 0 3 C 0 0 0 0 3 0" fill="none"></path><path d="M 3 0 L 13 0 C 16 0 16 0 16 3 L 16 13 C 16 16 16 16 13 16 L 3 16 C 0 16 0 16 0 13 L 0 3 C 0 0 0 0 3 0" fill="rgb(249, 249, 249)" fill-opacity=" .85"></path><text y="21" style="font-size:12px;color:#333333;fill:#333333;"  x="8"></text></g></svg>