<svg xmlns:xlink="http://www.w3.org/1999/xlink" height="400" width="600" xmlns="http://www.w3.org/2000/svg" style="font-family:'lucida grande', 'lucida sans unicode', arial, helvetica, sans-serif;font-size:12px;" version="1.1"><desc>Created with Highcharts 4.0.4</desc><defs><clipPath id="highcharts-7"><rect height="400" width="600" y="0" x="0"></rect></clipPath></defs><rect class=" highcharts-background" fill="#FFFFFF" strokeWidth="0" height="400" width="600" y="0" x="0"></rect><g  class="highcharts-series-group"><g transform="translate(0,49) scale(1 1)"  visibility="visible" class="highcharts-series"><path visibility="visible" transform="translate(5,5)"  d="M 299.97372615672333 47.7832271188978 L 299.97372615672333 66.34478012504466 L 300 157.56155300614688 L 300 139 Z" fill="rgb(161,56,50)" fill-opacity="1"></path><path visibility="visible" transform="translate(-5,-5)"  d="M 299.9485315317405 47.78323248712225 L 299.9485315317405 66.34478549326911 L 300 157.56155300614688 L 300 139 Z" fill="rgb(57,103,165)" fill-opacity="1"></path><path visibility="visible" transform="translate(5,5)"  d="M 171.98088977120938 127.77263574500331 L 171.98088977120938 146.33418875115018 L 300 157.56155300614688 L 300 139 Z" fill="rgb(161,56,50)" fill-opacity="1"></path><path visibility="visible" transform="translate(-5,-5)"  d="M 171.98104855651832 127.77173051375505 C 180.0596564451518 81.7176652683113 234.31913970890287 47.801747966030476 299.9485315317405 47.78323248712225 L 299.9485315317405 66.34478549326911 C 234.31913970890287 66.36330097217734 180.0596564451518 100.27921827445816 171.98104855651832 146.33328351990193 Z" fill="rgb(57,103,165)" fill-opacity="1"></path><path visibility="visible" transform="translate(-5,-5)"  d="M 300 139 C 300 139 300 139 300 139 L 300 157.56155300614688 C 300 157.56155300614688 300 157.56155300614688 300 157.56155300614688 Z" fill="rgb(57,103,165)" fill-opacity="1"></path><path visibility="visible" transform="translate(-5,-5)"  d="M 171.98104855651832 127.77173051375505 L 171.98104855651832 146.33328351990193 L 300 157.56155300614688 L 300 139 Z" fill="rgb(57,103,165)" fill-opacity="1"></path><path visibility="visible" transform="translate(5,5)"  d="M 429 139 C 429 189.37763363591387 371.2447327281724 230.21677477306463 300 230.21677477306463 C 228.75526727182762 230.21677477306463 171 189.37763363591387 171 139 L 171 157.56155300614688 C 171 207.93918664206075 228.75526727182762 248.7783277792115 300 248.7783277792115 C 371.2447327281724 248.7783277792115 429 207.93918664206075 429 157.56155300614688 Z" fill="rgb(161,56,50)" fill-opacity="1"></path><path visibility="visible" transform="translate(5,5)"  d="M 300 139 C 300 139 300 139 300 139 C 300 139 300 139 300 139 C 300 139 300 139 300 139 C 300 139 300 139 300 139 L 300 157.56155300614688 C 300 157.56155300614688 300 157.56155300614688 300 157.56155300614688 C 300 157.56155300614688 300 157.56155300614688 300 157.56155300614688 C 300 157.56155300614688 300 157.56155300614688 300 157.56155300614688 C 300 157.56155300614688 300 157.56155300614688 300 157.56155300614688 Z" fill="rgb(161,56,50)" fill-opacity="1"></path><g stroke-linejoin="round" stroke-width="1" stroke="#BA514B" ><path visibility="visible" transform="translate(5,5)"  d="M 299.97372615672333 47.7832271188978 C 371.2184574071811 47.77296654486059 428.9854866813999 88.60378899623937 428.99999732436106 138.98142158725122 C 429.01450796732223 189.35905417826308 371.27100509373446 230.206512307065 300.02627384327667 230.2167728811022 C 228.78154259281888 230.2270334551394 171.01451331860008 189.39621100376064 171.00000267563894 139.01857841274878 C 170.99886087880972 135.05452104398745 171.2908755552419 131.7065513091153 171.98088977120938 127.77263574500331 L 300 139 C 300 139 300 139 300 139 C 300 139 300 139 300 139 C 300 139 300 139 300 139 C 300 139 300 139 300 139 Z" fill="#BA514B"></path></g><g stroke-linejoin="round" stroke-width="1" stroke="#5280BE" ><path visibility="visible" transform="translate(-5,-5)"  d="M 171.98104855651832 127.77173051375505 C 180.0596564451518 81.7176652683113 234.31913970890287 47.801747966030476 299.9485315317405 47.78323248712225 L 300 139 C 300 139 300 139 300 139 Z" fill="#5280BE"></path></g></g><g transform="translate(0,49) scale(1 1)"  visibility="visible" class="highcharts-markers"></g></g><text y="21" style="color:#333333;font-size:25px;font-weight:bold;font-family:th sarabunpsk;fill:#333333;width:556px;"  class="highcharts-title" text-anchor="middle" x="300"><tspan>ค่าใช้จ่ายงานบริการวิศวกรรมตามสัญญา  ปี 2558</tspan></text><g transform="translate(90,347)"  class="highcharts-legend"><g ><g><g transform="translate(8,3)"  class="highcharts-legend-item"><text y="21"  text-anchor="start" style="color:#333333;font-size:18px;font-weight:bold;cursor:pointer;font-family:th sarabunpsk;fill:#333333;" x="21"><tspan>ค่าจ้างเหมา งานบำรุงรักษาไฟฟ้า</tspan></text><rect fill="#BA514B"  height="12" width="16" y="10" x="0"></rect></g><g transform="translate(8,28)"  class="highcharts-legend-item"><text  text-anchor="start" style="color:#333333;font-size:18px;font-weight:bold;cursor:pointer;font-family:th sarabunpsk;fill:#333333;" y="21" x="21">ค่าดำเนินงานงานระบบจำหน่าย,ขยายเขต</text><rect fill="#5280BE"  height="12" width="16" y="10" x="0"></rect></g></g></g></g><g transform="translate(0,-9999)" style="cursor:default;padding:0;white-space:nowrap;"  class="highcharts-tooltip"><path transform="translate(1, 1)" stroke-width="5" stroke-opacity="0.049999999999999996" stroke="black"  d="M 3 0 L 13 0 C 16 0 16 0 16 3 L 16 13 C 16 16 16 16 13 16 L 3 16 C 0 16 0 16 0 13 L 0 3 C 0 0 0 0 3 0" fill="none"></path><path transform="translate(1, 1)" stroke-width="3" stroke-opacity="0.09999999999999999" stroke="black"  d="M 3 0 L 13 0 C 16 0 16 0 16 3 L 16 13 C 16 16 16 16 13 16 L 3 16 C 0 16 0 16 0 13 L 0 3 C 0 0 0 0 3 0" fill="none"></path><path transform="translate(1, 1)" stroke-width="1" stroke-opacity="0.15" stroke="black"  d="M 3 0 L 13 0 C 16 0 16 0 16 3 L 16 13 C 16 16 16 16 13 16 L 3 16 C 0 16 0 16 0 13 L 0 3 C 0 0 0 0 3 0" fill="none"></path><path d="M 3 0 L 13 0 C 16 0 16 0 16 3 L 16 13 C 16 16 16 16 13 16 L 3 16 C 0 16 0 16 0 13 L 0 3 C 0 0 0 0 3 0" fill="rgb(249, 249, 249)" fill-opacity=" .85"></path><text y="21" style="font-size:12px;color:#333333;fill:#333333;"  x="8"></text></g></svg>